<mxfile host="embed.diagrams.net" modified="2024-01-24T09:09:28.570Z" agent="Mozilla/5.0 (Windows NT 10.0; Win64; x64; rv:121.0) Gecko/20100101 Firefox/121.0" etag="noYT_NScgi-_Y2QooCnr" version="23.0.0" type="embed">
  <diagram id="YeCLWe_HClkNSCTwvOBR" name="Page-2">
    <mxGraphModel grid="1" page="1" gridSize="10" guides="1" tooltips="1" connect="1" arrows="1" fold="1" pageScale="1" pageWidth="827" pageHeight="1169" math="0" shadow="0">
      <root>
        <mxCell id="0" />
        <mxCell id="1" parent="0" />
        <mxCell id="paP7ExITM9u0D757Rfn3-3" value="" style="edgeStyle=orthogonalEdgeStyle;rounded=0;orthogonalLoop=1;jettySize=auto;html=1;" edge="1" parent="1" source="paP7ExITM9u0D757Rfn3-1" target="paP7ExITM9u0D757Rfn3-2">
          <mxGeometry relative="1" as="geometry" />
        </mxCell>
        <mxCell id="paP7ExITM9u0D757Rfn3-1" value="RX FIFO DREQ" style="strokeWidth=2;html=1;shape=mxgraph.flowchart.start_1;whiteSpace=wrap;" vertex="1" parent="1">
          <mxGeometry x="340" y="10" width="100" height="60" as="geometry" />
        </mxCell>
        <mxCell id="paP7ExITM9u0D757Rfn3-8" value="" style="edgeStyle=orthogonalEdgeStyle;rounded=0;orthogonalLoop=1;jettySize=auto;html=1;" edge="1" parent="1" source="paP7ExITM9u0D757Rfn3-2" target="paP7ExITM9u0D757Rfn3-7">
          <mxGeometry relative="1" as="geometry" />
        </mxCell>
        <mxCell id="paP7ExITM9u0D757Rfn3-9" value="Trigger" style="edgeLabel;html=1;align=center;verticalAlign=middle;resizable=0;points=[];" connectable="0" vertex="1" parent="paP7ExITM9u0D757Rfn3-8">
          <mxGeometry x="0.175" y="1" relative="1" as="geometry">
            <mxPoint x="23" y="-7" as="offset" />
          </mxGeometry>
        </mxCell>
        <mxCell id="paP7ExITM9u0D757Rfn3-2" value="DMA 0" style="whiteSpace=wrap;html=1;strokeWidth=2;" vertex="1" parent="1">
          <mxGeometry x="330" y="190" width="120" height="60" as="geometry" />
        </mxCell>
        <mxCell id="paP7ExITM9u0D757Rfn3-5" style="edgeStyle=orthogonalEdgeStyle;rounded=0;orthogonalLoop=1;jettySize=auto;html=1;exitX=0.5;exitY=1;exitDx=0;exitDy=0;exitPerimeter=0;entryX=0;entryY=0.5;entryDx=0;entryDy=0;shape=flexArrow;" edge="1" parent="1" source="paP7ExITM9u0D757Rfn3-4" target="paP7ExITM9u0D757Rfn3-2">
          <mxGeometry relative="1" as="geometry" />
        </mxCell>
        <mxCell id="paP7ExITM9u0D757Rfn3-6" value="Fetch item from FIFO" style="edgeLabel;html=1;align=center;verticalAlign=middle;resizable=0;points=[];" connectable="0" vertex="1" parent="paP7ExITM9u0D757Rfn3-5">
          <mxGeometry x="0.1167" y="1" relative="1" as="geometry">
            <mxPoint x="16" y="-19" as="offset" />
          </mxGeometry>
        </mxCell>
        <mxCell id="paP7ExITM9u0D757Rfn3-4" value="RX FIFO" style="strokeWidth=2;html=1;shape=mxgraph.flowchart.direct_data;whiteSpace=wrap;" vertex="1" parent="1">
          <mxGeometry x="110" y="90" width="100" height="60" as="geometry" />
        </mxCell>
        <mxCell id="paP7ExITM9u0D757Rfn3-11" value="" style="edgeStyle=orthogonalEdgeStyle;rounded=0;orthogonalLoop=1;jettySize=auto;html=1;" edge="1" parent="1" source="paP7ExITM9u0D757Rfn3-7" target="paP7ExITM9u0D757Rfn3-10">
          <mxGeometry relative="1" as="geometry" />
        </mxCell>
        <mxCell id="paP7ExITM9u0D757Rfn3-23" value="Trigger" style="edgeLabel;html=1;align=center;verticalAlign=middle;resizable=0;points=[];" connectable="0" vertex="1" parent="paP7ExITM9u0D757Rfn3-11">
          <mxGeometry x="-0.075" y="-2" relative="1" as="geometry">
            <mxPoint x="26" as="offset" />
          </mxGeometry>
        </mxCell>
        <mxCell id="paP7ExITM9u0D757Rfn3-7" value="DMA 1" style="whiteSpace=wrap;html=1;strokeWidth=2;" vertex="1" parent="1">
          <mxGeometry x="330" y="330" width="120" height="60" as="geometry" />
        </mxCell>
        <mxCell id="paP7ExITM9u0D757Rfn3-30" style="edgeStyle=orthogonalEdgeStyle;rounded=0;orthogonalLoop=1;jettySize=auto;html=1;exitX=0.5;exitY=1;exitDx=0;exitDy=0;entryX=0.25;entryY=0;entryDx=0;entryDy=0;" edge="1" parent="1" source="paP7ExITM9u0D757Rfn3-10" target="paP7ExITM9u0D757Rfn3-2">
          <mxGeometry relative="1" as="geometry">
            <Array as="points">
              <mxPoint x="390" y="560" />
              <mxPoint x="70" y="560" />
              <mxPoint x="70" y="70" />
              <mxPoint x="340" y="70" />
              <mxPoint x="340" y="130" />
              <mxPoint x="360" y="130" />
            </Array>
          </mxGeometry>
        </mxCell>
        <mxCell id="paP7ExITM9u0D757Rfn3-31" value="Trigger" style="edgeLabel;html=1;align=center;verticalAlign=middle;resizable=0;points=[];" connectable="0" vertex="1" parent="paP7ExITM9u0D757Rfn3-30">
          <mxGeometry x="-0.8876" y="-2" relative="1" as="geometry">
            <mxPoint x="62" y="-8" as="offset" />
          </mxGeometry>
        </mxCell>
        <mxCell id="paP7ExITM9u0D757Rfn3-34" value="Rearm" style="edgeLabel;html=1;align=center;verticalAlign=middle;resizable=0;points=[];" connectable="0" vertex="1" parent="paP7ExITM9u0D757Rfn3-30">
          <mxGeometry x="0.7024" relative="1" as="geometry">
            <mxPoint x="46" y="80" as="offset" />
          </mxGeometry>
        </mxCell>
        <mxCell id="paP7ExITM9u0D757Rfn3-10" value="DMA 2" style="whiteSpace=wrap;html=1;strokeWidth=2;" vertex="1" parent="1">
          <mxGeometry x="330" y="470" width="120" height="60" as="geometry" />
        </mxCell>
        <mxCell id="paP7ExITM9u0D757Rfn3-13" style="edgeStyle=orthogonalEdgeStyle;rounded=0;orthogonalLoop=1;jettySize=auto;html=1;exitX=0.5;exitY=1;exitDx=0;exitDy=0;exitPerimeter=0;entryX=0;entryY=0.5;entryDx=0;entryDy=0;shape=flexArrow;" edge="1" parent="1" source="paP7ExITM9u0D757Rfn3-12" target="paP7ExITM9u0D757Rfn3-7">
          <mxGeometry relative="1" as="geometry" />
        </mxCell>
        <mxCell id="paP7ExITM9u0D757Rfn3-14" value="Fetch base addr" style="edgeLabel;html=1;align=center;verticalAlign=middle;resizable=0;points=[];" connectable="0" vertex="1" parent="paP7ExITM9u0D757Rfn3-13">
          <mxGeometry x="0.2438" y="2" relative="1" as="geometry">
            <mxPoint y="-18" as="offset" />
          </mxGeometry>
        </mxCell>
        <mxCell id="paP7ExITM9u0D757Rfn3-12" value="Base Addr" style="strokeWidth=2;html=1;shape=mxgraph.flowchart.direct_data;whiteSpace=wrap;" vertex="1" parent="1">
          <mxGeometry x="110" y="240" width="100" height="60" as="geometry" />
        </mxCell>
        <mxCell id="paP7ExITM9u0D757Rfn3-22" style="edgeStyle=orthogonalEdgeStyle;rounded=0;orthogonalLoop=1;jettySize=auto;html=1;exitX=0;exitY=0.5;exitDx=0;exitDy=0;exitPerimeter=0;entryX=1;entryY=0.25;entryDx=0;entryDy=0;shape=flexArrow;" edge="1" parent="1" source="paP7ExITM9u0D757Rfn3-16" target="paP7ExITM9u0D757Rfn3-10">
          <mxGeometry relative="1" as="geometry" />
        </mxCell>
        <mxCell id="paP7ExITM9u0D757Rfn3-16" value="XOR both base addr and offset" style="verticalLabelPosition=bottom;verticalAlign=top;html=1;shape=mxgraph.flowchart.summing_function;" vertex="1" parent="1">
          <mxGeometry x="560" y="450" width="70" height="70" as="geometry" />
        </mxCell>
        <mxCell id="paP7ExITM9u0D757Rfn3-17" style="edgeStyle=orthogonalEdgeStyle;rounded=0;orthogonalLoop=1;jettySize=auto;html=1;exitX=1;exitY=0.5;exitDx=0;exitDy=0;entryX=1;entryY=0.5;entryDx=0;entryDy=0;entryPerimeter=0;shape=flexArrow;" edge="1" parent="1" source="paP7ExITM9u0D757Rfn3-2" target="paP7ExITM9u0D757Rfn3-16">
          <mxGeometry relative="1" as="geometry">
            <Array as="points">
              <mxPoint x="690" y="220" />
              <mxPoint x="690" y="485" />
            </Array>
          </mxGeometry>
        </mxCell>
        <mxCell id="paP7ExITM9u0D757Rfn3-24" value="Write into read_addr register" style="edgeLabel;html=1;align=center;verticalAlign=middle;resizable=0;points=[];" connectable="0" vertex="1" parent="paP7ExITM9u0D757Rfn3-17">
          <mxGeometry x="-0.585" y="3" relative="1" as="geometry">
            <mxPoint x="-27" y="-17" as="offset" />
          </mxGeometry>
        </mxCell>
        <mxCell id="paP7ExITM9u0D757Rfn3-19" style="edgeStyle=orthogonalEdgeStyle;rounded=0;orthogonalLoop=1;jettySize=auto;html=1;exitX=1;exitY=0.5;exitDx=0;exitDy=0;entryX=0.5;entryY=0;entryDx=0;entryDy=0;entryPerimeter=0;shape=flexArrow;" edge="1" parent="1" source="paP7ExITM9u0D757Rfn3-7" target="paP7ExITM9u0D757Rfn3-16">
          <mxGeometry relative="1" as="geometry" />
        </mxCell>
        <mxCell id="paP7ExITM9u0D757Rfn3-25" value="Write into read_addr register" style="edgeLabel;html=1;align=center;verticalAlign=middle;resizable=0;points=[];" connectable="0" vertex="1" parent="paP7ExITM9u0D757Rfn3-19">
          <mxGeometry x="-0.2596" y="3" relative="1" as="geometry">
            <mxPoint x="3" y="-17" as="offset" />
          </mxGeometry>
        </mxCell>
        <mxCell id="paP7ExITM9u0D757Rfn3-21" style="edgeStyle=orthogonalEdgeStyle;rounded=0;orthogonalLoop=1;jettySize=auto;html=1;exitX=0.5;exitY=1;exitDx=0;exitDy=0;exitPerimeter=0;entryX=0;entryY=0.5;entryDx=0;entryDy=0;shape=flexArrow;" edge="1" parent="1" source="paP7ExITM9u0D757Rfn3-20" target="paP7ExITM9u0D757Rfn3-10">
          <mxGeometry relative="1" as="geometry" />
        </mxCell>
        <mxCell id="paP7ExITM9u0D757Rfn3-29" value="&lt;div&gt;Fetch data&lt;/div&gt;" style="edgeLabel;html=1;align=center;verticalAlign=middle;resizable=0;points=[];" connectable="0" vertex="1" parent="paP7ExITM9u0D757Rfn3-21">
          <mxGeometry x="0.2273" relative="1" as="geometry">
            <mxPoint x="-5" y="-15" as="offset" />
          </mxGeometry>
        </mxCell>
        <mxCell id="paP7ExITM9u0D757Rfn3-20" value="Memory" style="strokeWidth=2;html=1;shape=mxgraph.flowchart.database;whiteSpace=wrap;" vertex="1" parent="1">
          <mxGeometry x="130" y="390" width="60" height="60" as="geometry" />
        </mxCell>
        <mxCell id="paP7ExITM9u0D757Rfn3-26" value="TX FIFO" style="strokeWidth=2;html=1;shape=mxgraph.flowchart.direct_data;whiteSpace=wrap;" vertex="1" parent="1">
          <mxGeometry x="120" y="580" width="100" height="60" as="geometry" />
        </mxCell>
        <mxCell id="paP7ExITM9u0D757Rfn3-27" style="edgeStyle=orthogonalEdgeStyle;rounded=0;orthogonalLoop=1;jettySize=auto;html=1;exitX=1;exitY=0.75;exitDx=0;exitDy=0;entryX=1;entryY=0.5;entryDx=0;entryDy=0;entryPerimeter=0;shape=flexArrow;" edge="1" parent="1" source="paP7ExITM9u0D757Rfn3-10" target="paP7ExITM9u0D757Rfn3-26">
          <mxGeometry relative="1" as="geometry">
            <Array as="points">
              <mxPoint x="490" y="515" />
              <mxPoint x="490" y="610" />
            </Array>
          </mxGeometry>
        </mxCell>
        <mxCell id="paP7ExITM9u0D757Rfn3-28" value="Write data to FIFO" style="edgeLabel;html=1;align=center;verticalAlign=middle;resizable=0;points=[];" connectable="0" vertex="1" parent="paP7ExITM9u0D757Rfn3-27">
          <mxGeometry x="-0.0366" y="5" relative="1" as="geometry">
            <mxPoint x="-40" y="-25" as="offset" />
          </mxGeometry>
        </mxCell>
      </root>
    </mxGraphModel>
  </diagram>
</mxfile>
